<mxfile host="app.diagrams.net" modified="2024-04-24T18:15:40.909Z" agent="Mozilla/5.0 (Windows NT 10.0; Win64; x64) AppleWebKit/537.36 (KHTML, like Gecko) Chrome/124.0.0.0 Safari/537.36 Edg/124.0.0.0" version="24.3.0" etag="JroA1KNb8m8ellL26p8G" type="github">
  <diagram name="Page-1" id="fyDNlqdmsOgrp8ACPc0i">
    <mxGraphModel>
      <root>
        <mxCell id="0" />
        <mxCell id="1" parent="0" />
      </root>
    </mxGraphModel>
  </diagram>
</mxfile>
